ply
format ascii 1.0
comment VCGLIB generated
element vertex 8
property float x
property float y
property float z
property float nx
property float ny
property float nz
property uchar red
property uchar green
property uchar blue
property uchar alpha
element face 12
property list uchar int vertex_indices
end_header
0.78878 204.5855 0.0356668 0.01167806 0.9999317 0.0005280547 60 255 0 255 
0.78878 -204.5855 0.0356668 0.01167806 -0.9999317 0.0005280547 60 255 0 255 
-0.78878 204.5855 0.0356668 -0.01167806 0.9999317 0.0005280547 60 255 0 255 
-0.78878 -204.5855 0.0356668 -0.01167806 -0.9999317 0.0005280547 60 255 0 255 
0.78878 204.5855 -0.0356668 0.01167806 0.9999317 -0.0005280547 60 255 0 255 
0.78878 -204.5855 -0.0356668 0.01167806 -0.9999317 -0.0005280547 60 255 0 255 
-0.78878 204.5855 -0.0356668 -0.01167806 0.9999317 -0.0005280547 60 255 0 255 
-0.78878 -204.5855 -0.0356668 -0.01167806 -0.9999317 -0.0005280547 60 255 0 255 
3 4 2 0 
3 2 7 3 
3 6 5 7 
3 1 7 5 
3 0 3 1 
3 4 1 5 
3 4 6 2 
3 2 6 7 
3 6 4 5 
3 1 3 7 
3 0 2 3 
3 4 0 1 
